<mxfile host="app.diagrams.net" modified="2023-08-04T03:15:56.108Z" agent="Mozilla/5.0 (Macintosh; Intel Mac OS X 10_15_7) AppleWebKit/537.36 (KHTML, like Gecko) Chrome/115.0.0.0 Safari/537.36" version="21.6.6" etag="aewPiVYfPTHTYzW0k0CG" type="github">
  <diagram name="第 1 页" id="gFgldcV0hnqzg_R0nUWU">
    <mxGraphModel>
      <root>
        <mxCell id="0" />
        <mxCell id="1" parent="0" />
      </root>
    </mxGraphModel>
  </diagram>
</mxfile>
